<?xml version="1.0" standalone="no"?><!DOCTYPE svg PUBLIC "-//W3C//DTD SVG 1.1//EN" "http://www.w3.org/Graphics/SVG/1.1/DTD/svg11.dtd"><svg t="1761739364398" class="icon" viewBox="0 0 1090 1024" version="1.1" xmlns="http://www.w3.org/2000/svg" p-id="5883" xmlns:xlink="http://www.w3.org/1999/xlink" width="212.890625" height="200"><path d="M171.902318 2.079809c4.220789-0.770753 8.502748-1.17448 12.796941-1.186715C420.415006 0.905329 656.142987 0.893094 891.870968 0.905329c16.944325 0.159044 33.692903 6.581983 46.514313 17.641672 15.867718 13.457587 25.520478 33.962055 25.593883 54.796846 0 33.484922 0.012234 66.982079-0.012234 100.479235-0.14681 18.828387-8.050084 37.424325-21.409797 50.686165-13.55546 13.714504-32.689701 21.65448-51.970753 21.556607-234.896057 0.012234-469.779881 0-704.675938 0.012234-17.886356 0.207981-35.73601-6.398471-49.120191-18.277849-15.439522-13.445352-24.786428-33.570562-24.933238-54.050562-0.048937-33.044492-0.012234-66.088984-0.024468-99.133476-0.122342-15.684205 4.979307-31.331708 14.338447-43.920669 10.900645-14.864516 27.588053-25.361434 45.731326-28.615723m5.982509 48.851039c-10.044253 3.046308-17.396989 13.078327-17.103369 23.599714 0.012234 33.117897-0.085639 66.235795 0.048936 99.341457 0.269152 12.907049 12.270872 23.905568 25.128985 23.257157 232.449223 0 464.886213 0 697.323202 0.012234 5.248459-0.061171 10.717133 0.452664 15.720908-1.504803 9.444779-3.327694 16.246977-12.96822 16.038996-23.024707 0.012234-32.665233 0-65.330466 0-97.995699 0.354791-10.717133-7.267097-20.957133-17.556033-23.832163-5.028244-1.455866-10.313405-0.831924-15.451757-0.954265-232.021027-0.012234-464.042055 0.024468-696.063082-0.012234-2.72822 0.012234-5.480908 0.269152-8.086786 1.113309z" p-id="5884"></path><path d="M206.965448 98.093572c3.927168-1.015436 8.013381-0.782987 12.026189-0.795221 56.252712 0.024468 112.517658-0.024468 168.77037 0.012234 8.967646-0.110108 17.678375 5.199522 21.74012 13.176201 3.009606 5.542079 3.144182 12.08736 2.556941 18.228913-1.015436 9.089988-7.65859 17.237945-16.344851 20.112975-4.893668 1.749486-10.142127 1.272354-15.231541 1.333524-53.414385-0.012234-106.816535-0.012234-160.23092 0-4.856965-0.061171-9.872975 0.391493-14.558662-1.186714-8.955412-2.764922-15.879952-11.12086-16.821983-20.455532-0.403728-5.395269-0.501601-11.071924 1.70055-16.13687 2.838327-6.973477 9.102222-12.405448 16.393787-14.28951zM173.101266 285.961481c3.841529-0.636177 7.731995-0.954265 11.634696-0.990967h694.900836c8.196894 0.048937 16.479427-0.391493 24.566213 1.260119 18.77945 3.425568 35.94399 14.644301 46.758996 30.352975 8.490514 12.197467 13.127264 27.037515 13.017157 41.914265v89.248268c-0.036703 6.92454 0.29362 13.922485-0.929797 20.785854-3.058542 19.586906-14.58313 37.607838-30.964684 48.740932-12.417682 8.600621-27.55135 13.053859-42.636081 12.870347-229.610896 0.012234-459.221792 0-688.832688 0-11.536822-0.073405-23.330562 0.697348-34.561529-2.569176-25.128984-6.581983-45.8292-27.55135-51.970753-52.81491-2.972903-10.790538-2.14098-22.058208-2.251087-33.105664 0-27.747097 0-55.494194 0.012234-83.229056-0.061171-15.659737 5.07718-31.270538 14.448554-43.810561 11.145329-15.096965 28.273166-25.64282 46.807933-28.652426m5.958041 48.728698c-10.521386 2.593644-18.48583 12.845878-18.277849 23.697587 0.012234 33.081195-0.073405 66.174624 0.036702 99.268052 0.110108 13.017157 12.197467 24.174719 25.153453 23.550777 234.859355 0 469.71871 0.036703 704.578064-0.024468 12.723536 0.305854 24.358232-10.778303 24.456106-23.538543 0.073405-33.093429 0.024468-66.186858 0.036702-99.280287 0.183513-10.007551-6.557515-19.611374-15.977826-22.939068-4.991541-1.981935-10.460215-1.4681-15.708673-1.517037-230.406117 0-460.812234 0.012234-691.230586 0-4.355364 0.048937-8.808602-0.318088-13.066093 0.782987z" p-id="5885"></path><path d="M210.733572 380.87417c58.613907-0.342557 117.252282-0.036703 175.866189-0.14681 8.53945-0.379259 17.115603 3.9027 21.703417 11.157562 4.367599 6.459642 4.612282 14.705472 3.46227 22.168316-2.104277 11.059689-12.637897 19.721481-23.930036 19.5135-58.320287 0.012234-116.640573 0.036703-174.96086-0.012234-9.542652 0.036703-18.681577-6.153787-22.278423-14.974623-2.214385-5.07718-2.128746-10.753835-1.725018-16.173573 1.039904-11.133094 10.717133-20.651278 21.862461-21.532138z" p-id="5886"></path><path d="M901.817348 592.402963c15.84325-10.766069 34.414719-18.19221 53.732473-18.657109 20.345424-0.697348 40.22595 6.533047 57.109104 17.507097 26.621553 17.421458 47.040382 42.587145 64.486308 68.841673 10.655962 15.831016 15.574098 36.274313 10.068722 54.882485-3.058542 10.961816-10.215532 20.027336-15.953358 29.667861-32.200335 51.799474-61.990538 105.788865-103.342031 151.10423-42.856296 47.994648-97.17601 86.520048-158.493668 106.865471-44.997276 15.280478-92.89405 20.871493-140.264755 19.440096-123.503943-2.972903-247.056822-1.198949-370.560764 0.685114-13.11503 0.036703-26.389104 1.162246-39.34509-1.492569-7.401673-1.480335-14.754409-4.551111-19.990633-10.154361-5.16282-5.468674-7.842103-12.796941-9.163393-20.088507-2.079809-11.316607-1.272354-22.853429-1.076607-34.267909 2.14098-99.488268 1.345759-199.013238 0.048937-298.513739 0.012234-12.540024 0.917563-26.621553 10.068721-36.17644 9.138925-8.979881 22.792258-10.252234 34.965257-10.325639 107.636225 1.333524 215.284683 0.550538 322.920908 0.562772 25.752927-0.036703 51.689367 0.134576 77.148674 4.48994 18.143274 3.156416 36.298781 9.322437 50.649462 21.226284 14.999092 12.209701 25.031111 29.239665 32.983322 46.587718 8.943178 19.782652 15.6108 40.482867 21.960334 61.207551 13.653333-19.024134 28.040717-37.522198 41.449367-56.729845 10.68043-15.17037 19.537969-31.551924 30.695532-46.404205 14.032593-19.048602 30.218399-36.91049 49.903178-50.257969m21.678948 44.777061c-17.984229 14.411852-32.004588 33.068961-44.287694 52.398949-10.203297 16.846452-21.458734 33.00779-33.203536 48.802102-28.762533 38.427527-56.21601 77.809319-84.281195 116.738447-8.661792-28.554552-17.286882-57.133572-25.93644-85.700358-6.435173-21.262987-12.858112-42.611613-21.825758-62.981506-4.661219-10.24-9.824038-20.590108-17.910825-28.591254-8.417109-8.184659-20.284253-11.157563-31.502987-13.11503-24.358232-3.853763-49.107957-3.437802-73.686403-3.511207-104.271828 0.012234-208.543656 0.746284-312.80325-0.489367 1.443632 104.443106 1.957467 208.922915-0.428196 313.366022 119.515603-1.822891 239.055675-3.731422 358.571278-1.663847 24.492808 0.220215 49.010084 1.786189 73.478423 0.048937 38.244014-2.459068 76.218877-11.145329 111.196368-26.927408 33.142366-14.827814 63.336296-35.858351 89.590825-60.864994 24.468339-23.147049 45.498877-49.682963 64.241624-77.613572 21.727885-32.469486 41.045639-66.468244 62.015006-99.427097 1.712784-2.813859 3.9027-5.688889 3.804827-9.163393 0.073405-5.040478-2.838327-9.35914-5.51761-13.371947-12.124062-17.971995-25.826332-35.295579-43.125448-48.581888-9.836272-7.36497-21.324158-13.775675-33.925353-13.898017-12.882581 0.14681-24.52951 6.912306-34.463656 14.546428zM13.616631 631.405496c9.273501-9.983082 22.828961-15.757611 36.47006-15.512927 33.056726-0.024468 66.113453-0.061171 99.182413 0.012234 13.225137 0.097873 26.23006 5.89687 35.197706 15.623035 8.83307 9.35914 13.494289 22.290657 13.139498 35.124301 0.012234 102.4 0.036703 204.8-0.012234 307.2 0.183513 16.246977-8.404875 32.151398-21.972569 41.045639-8.111254 5.444205-17.89859 8.160191-27.661457 8.123488-31.380645 0.012234-62.76129-0.024468-94.141936 0.012235-11.536822 0.538303-23.391732-2.177682-32.799809-9.077754C8.123489 1005.049271 0.807455 989.756559 0 974.304803V666.701075c0.305854-12.882581 4.612282-25.875269 13.616631-35.295579m35.760478 33.399283c0.036703 103.109582-0.122342 206.219164 0.073405 309.316511 33.068961-0.085639 66.137921-0.012234 99.219116-0.036702 0.036703-103.097348 0.012234-206.182461 0.012234-309.267575-33.105663-0.024468-66.211326-0.012234-99.304755-0.012234z" fill="#22232E" p-id="5887"></path><path d="M93.505759 691.989104c7.499546-1.749486 15.745376 0.14681 21.691182 5.052712 6.606452 5.297395 10.215532 14.069295 9.187862 22.486404-0.856392 8.39264-6.276129 16.124636-13.836846 19.856057-8.39264 4.294194-19.170944 3.339928-26.646022-2.422365-8.025615-5.89687-11.928315-16.797515-9.346905-26.438041 2.189916-9.089988 9.824038-16.552832 18.950729-18.534767zM330.334815 691.38963c98.301553 0.012234 196.615341-0.024468 294.916893 0.024468 15.366117 0.978734 29.202963 10.643728 37.571135 23.257156 10.117658 15.072497 13.543226 33.423751 14.986858 51.212235 0.636177 13.812378-1.443632 28.787001-10.435746 39.834456-7.487312 9.163393-19.476798 13.359713-31.025855 13.641099-101.861697 0-203.723393 0.012234-305.585089 0-0.122342-42.66055-0.305854-85.308865-0.428196-127.969414m49.05902 48.948912c0.159044 10.032019 0.024468 20.051804 0.171279 30.083824 83.167885 0 166.335771 0.012234 249.503655 0-1.015436-10.276703-1.835125-21.275221-7.878805-30.047121-80.59871-0.097873-161.197419-0.024468-241.796129-0.036703z" fill="#22232E" p-id="5888"></path></svg>