<?xml version="1.0" standalone="no"?><!DOCTYPE svg PUBLIC "-//W3C//DTD SVG 1.1//EN" "http://www.w3.org/Graphics/SVG/1.1/DTD/svg11.dtd"><svg t="1761739299040" class="icon" viewBox="0 0 1024 1024" version="1.1" xmlns="http://www.w3.org/2000/svg" p-id="4193" xmlns:xlink="http://www.w3.org/1999/xlink" width="200" height="200"><path d="M87.39 138.39c20.89-30.79 57.3-50.5 94.59-50.4 210.99 0.02 421.98 0 632.98 0.01 14.98 0.17 30.19-0.96 44.91 2.56 34.12 7.21 64.18 30.81 79.48 62.12 9 17.97 12.79 38.26 11.9 58.29v449.04c0.27 12.75-0.06 25.63-3.37 38.03-8.4 34.56-33.75 64.4-66.43 78.39-15.21 6.64-31.86 9.96-48.45 9.57-100.17 0.01-200.33-0.01-300.5 0.01 0 34.91-0.01 69.83 0.01 104.74 89.83-0.01 179.66 0.01 269.5 0 7.37-0.21 14.85 3.03 19.33 8.97 4.73 5.94 6.15 14.28 3.81 21.49-2.32 7.43-8.64 13.48-16.2 15.38-3.26 0.94-6.68 0.62-10.01 0.66H219.02c-3.33 0-6.73 0.22-9.95-0.76-8.24-2.16-14.9-9.31-16.49-17.67-1.43-6.55 0.21-13.67 4.31-18.96 4.42-5.9 11.79-9.21 19.11-9.11 89.99 0 179.99-0.01 269.99 0.01 0.03-34.92 0-69.84 0.01-104.76-100.01-0.01-200.02 0-300.03 0-9.47 0.25-18.96-0.68-28.21-2.74-32.91-7.21-62.01-29.64-77.52-59.53-9.16-17.37-13.65-37.1-13.24-56.72 0-153.69 0.01-307.37 0-461.06-0.39-23.91 6.77-47.89 20.39-67.56m82.99-2.74c-16 3.04-30.87 11.85-41.09 24.56-10.08 12.2-15.7 27.94-15.8 43.76 0.02 151.34 0.01 302.67 0.01 454.01 0.06 8.42-0.46 16.94 1.36 25.24 3.19 16.52 12.73 31.63 26.06 41.86 12.48 9.61 28.29 14.88 44.07 14.43 216.33-0.01 432.65-0.02 648.98 0 21.42 0.49 42.69-9.76 55.83-26.65 9.15-11.53 14.53-26.03 14.95-40.75 0.01-155.7-0.01-311.39 0.01-467.09 0.46-20.98-9.48-41.79-25.81-54.92-12.8-10.46-29.43-16.21-45.97-15.6h-652c-3.56 0.05-7.1 0.51-10.6 1.15z" fill="#0C00BF" p-id="4194"></path><path d="M486.59 216.81c41.65-4.44 84.5 2.43 122.5 20.12 35.43 16.36 66.6 41.82 89.72 73.25 21.35 28.91 35.88 62.83 41.93 98.27 7.18 42.19 2.84 86.4-13.17 126.14-15.05 37.85-40.33 71.54-72.37 96.66-29.91 23.62-65.76 39.65-103.31 46.18-44.76 7.89-91.83 2.46-133.5-15.79-34.16-14.86-64.57-38.13-87.99-67.09-22.5-27.69-38.42-60.66-46.16-95.48-10.65-47.87-5.93-99.11 13.83-144.03 22.16-51.06 63.34-93.5 113.69-117.2 23.51-11.2 48.95-18.27 74.83-21.03m7.94 45.99c-22.39 1.99-44.4 8.12-64.6 17.98-44.21 21.41-79.22 61-94.86 107.58-14 40.9-13.07 86.71 2.63 126.99 14.36 37.32 41.17 69.68 75.11 90.81 32.06 20.21 70.47 30.09 108.29 28.02 39.07-1.9 77.34-16.65 107.61-41.4 28.79-23.33 50.43-55.41 61.03-90.93 12.9-42.73 9.84-90.12-8.83-130.7-15.15-33.4-40.47-62.05-71.67-81.32-33.94-21.18-74.89-30.78-114.71-27.03z" fill="#0C00BF" p-id="4195"></path><path d="M594 372.1c4.3-4.71 10.62-7.5 17.01-7.39 8.31-0.19 16.53 4.57 20.44 11.9 3.52 6.33 3.79 14.32 0.89 20.93-1.62 3.69-4.51 6.58-7.17 9.54-33.46 36.89-66.9 73.79-100.36 110.67-4.07 4.28-7.61 9.46-13.23 11.85-8.67 4.22-19.78 2.17-26.5-4.69-29.7-26.95-59.42-53.87-89.11-80.82-4.76-4.3-7.55-10.67-7.51-17.08-0.19-8.35 4.65-16.52 11.98-20.49 8.68-4.85 20.39-3.41 27.48 3.63 24.02 21.85 48.14 43.59 72.12 65.46 31.41-34.42 62.6-69.04 93.96-103.51z" fill="#FC4E7F" p-id="4196"></path></svg>