<?xml version="1.0" standalone="no"?><!DOCTYPE svg PUBLIC "-//W3C//DTD SVG 1.1//EN" "http://www.w3.org/Graphics/SVG/1.1/DTD/svg11.dtd"><svg t="1761739416237" class="icon" viewBox="0 0 1024 1024" version="1.1" xmlns="http://www.w3.org/2000/svg" p-id="6587" xmlns:xlink="http://www.w3.org/1999/xlink" width="200" height="200"><path d="M512 93.814154L918.016 905.846154H105.984L512 93.814154zM169.708308 866.461538h684.583384L512 181.878154 169.708308 866.461538z" fill="#333333" p-id="6588"></path><path d="M512 118.153846m-98.461538 0a98.461538 98.461538 0 1 0 196.923076 0 98.461538 98.461538 0 1 0-196.923076 0Z" fill="#5124FC" p-id="6589"></path><path d="M137.846154 905.846154m-98.461539 0a98.461538 98.461538 0 1 0 196.923077 0 98.461538 98.461538 0 1 0-196.923077 0Z" fill="#5124FC" p-id="6590"></path><path d="M512 610.461538m-98.461538 0a98.461538 98.461538 0 1 0 196.923076 0 98.461538 98.461538 0 1 0-196.923076 0Z" fill="#5124FC" p-id="6591"></path><path d="M886.153846 905.846154m-98.461538 0a98.461538 98.461538 0 1 0 196.923077 0 98.461538 98.461538 0 1 0-196.923077 0Z" fill="#5124FC" p-id="6592"></path><path d="M512 236.307692a118.153846 118.153846 0 1 0 0-236.307692 118.153846 118.153846 0 0 0 0 236.307692z m0-39.384615a78.769231 78.769231 0 1 1 0-157.538462 78.769231 78.769231 0 0 1 0 157.538462zM137.846154 1024a118.153846 118.153846 0 1 0 0-236.307692 118.153846 118.153846 0 0 0 0 236.307692z m0-39.384615a78.769231 78.769231 0 1 1 0-157.538462 78.769231 78.769231 0 0 1 0 157.538462zM512 728.615385a118.153846 118.153846 0 1 0 0-236.307693 118.153846 118.153846 0 0 0 0 236.307693z m0-39.384616a78.769231 78.769231 0 1 1 0-157.538461 78.769231 78.769231 0 0 1 0 157.538461zM886.153846 1024a118.153846 118.153846 0 1 0 0-236.307692 118.153846 118.153846 0 0 0 0 236.307692z m0-39.384615a78.769231 78.769231 0 1 1 0-157.538462 78.769231 78.769231 0 0 1 0 157.538462z" fill="#333333" p-id="6593"></path></svg>