<?xml version="1.0" standalone="no"?><!DOCTYPE svg PUBLIC "-//W3C//DTD SVG 1.1//EN" "http://www.w3.org/Graphics/SVG/1.1/DTD/svg11.dtd"><svg t="1761739333142" class="icon" viewBox="0 0 1024 1024" version="1.1" xmlns="http://www.w3.org/2000/svg" p-id="4505" xmlns:xlink="http://www.w3.org/1999/xlink" width="200" height="200"><path d="M964.2 505.1c0 257.1-208.5 465.6-465.6 465.6S33 762.2 33 505.1C33 328.4 141.6 205 160.2 185.3 175.8 168.9 306.3 35 498.6 39.5c219.3 5.1 465.6 189.1 465.6 465.6z" fill="#707070" p-id="4506"></path><path d="M498.5 984.6C234.1 984.6 19 769.5 19 505.1c0-185.5 117.6-315.3 131-329.5C174.5 149.8 305.9 21 498.9 25.5c231.5 5.4 479.3 199.4 479.3 479.6-0.1 264.4-215.2 479.5-479.7 479.5zM489 53.3c-175.8 0-296 117.6-318.6 141.5-12.7 13.4-123.5 135.6-123.5 310.3 0 249 202.6 451.6 451.6 451.6s451.6-202.6 451.6-451.6c0-263.8-233.7-446.5-452-451.6-3-0.2-6.1-0.2-9.1-0.2z" fill="#707070" p-id="4507"></path><path d="M498.5 984.6C234.1 984.6 19 769.5 19 505.1c0-185.5 117.6-315.3 131-329.5C174.5 149.8 305.9 21 498.9 25.5c231.5 5.4 479.3 199.4 479.3 479.6-0.1 264.4-215.2 479.5-479.7 479.5zM489 53.3c-175.8 0-296 117.6-318.6 141.5-12.7 13.4-123.5 135.6-123.5 310.3 0 249 202.6 451.6 451.6 451.6s451.6-202.6 451.6-451.6c0-263.8-233.7-446.5-452-451.6-3-0.2-6.1-0.2-9.1-0.2z" fill="#707070" p-id="4508"></path><path d="M498.5 998.6C226.4 998.6 5 777.2 5 505.1c0-190.9 121.1-324.4 134.9-339C165 139.4 300.4 6.9 499.2 11.5c238 5.6 492.9 205.2 492.9 493.5 0 272.2-221.4 493.6-493.6 493.6zM32.9 505.1c0 256.7 208.9 465.6 465.6 465.6s465.6-208.9 465.6-465.6c0 256.7-208.9 465.6-465.6 465.6S32.9 761.8 32.9 505.1zM489 67.3c-170.2 0-286.8 114.2-308.5 137.2-12.3 12.9-119.6 131.3-119.6 300.6 0 241.3 196.3 437.7 437.7 437.7s437.7-196.3 437.7-437.7c0-255.7-226.6-432.7-438.3-437.7-3.1-0.1-6.1-0.1-9-0.1zM150.6 195.9C119.8 232.1 32.9 348 32.9 505.1c0-157 86.9-273 117.7-309.2z m206.9-135c-101.4 33.5-170.3 96.9-193.1 120 22.7-23.1 91.7-86.5 193.1-120z" fill="#707070" p-id="4509"></path><path d="M966.6 483.9c-93.9 0.8-188.1 1.3-281.1 1.7-1.7-73.8 9.4-147.9 33.5-217.3 39.3-18.3 76.8-40.8 111.5-67.6 6.1-4.7 7.2-13.5 2.5-19.6-4.7-6.1-13.5-7.3-19.6-2.5-24.8 19.1-51.4 36-79.2 50.5 10.5-24.3 22.5-47.9 36.4-70.4 4-6.6 2-15.2-4.6-19.2s-15.2-2-19.2 4.6c-20.2 32.9-37 67.5-50.4 103.2-58 25.2-120.4 40.9-183.9 47.3V39.4c0-7.7-6.3-14-14-14s-14 6.3-14 14v257.3c-67.5 3.8-135.6-3.1-200.6-20.9-18.3-39.3-40.8-76.8-67.5-111.5-4.7-6.1-13.5-7.3-19.6-2.5-6.1 4.7-7.2 13.5-2.5 19.6 20 25.9 37.4 53.8 52.4 82.9-38.6-13.3-75.7-30.5-110.4-51.9-6.6-4-15.2-2-19.2 4.6s-2 15.2 4.6 19.2c44.6 27.4 92.4 48.6 141.9 63.5 25.5 59.2 41.3 122.9 47.3 187.7-93 0.6-186.7 1.2-280.2 2.2-7.7 0.1-13.9 6.4-13.8 14.1 0.1 7.7 6.3 13.8 14 13.8h0.1c94-1 188.3-1.7 281.9-2.2 3.5 73.6-5.7 148-27.8 218-45.3 19.5-88.4 44.4-127.9 74.9-6.1 4.7-7.2 13.5-2.5 19.6 2.8 3.6 6.9 5.4 11.1 5.4 3 0 6-0.9 8.5-2.9 30.3-23.4 63.1-43.3 97.7-59.8-12 30.5-26.4 60-43.6 88-4 6.6-2 15.2 4.6 19.2 2.3 1.4 4.8 2.1 7.3 2.1 4.7 0 9.3-2.4 11.9-6.7 23.1-37.5 41.6-77.3 55.9-118.4 56.1-22.3 116-36.2 176.7-41.3v257.2c0 7.7 6.3 14 14 14s14-6.3 14-14V711.8c67.3-2.8 135.1 5.1 199.6 23.7 18.8 41.5 42.2 80.9 70.2 117.4 2.8 3.6 6.9 5.4 11.1 5.4 3 0 6-0.9 8.5-2.9 6.1-4.7 7.2-13.5 2.5-19.6-21.2-27.5-39.5-57.2-55.1-88.2 35.5 12.9 69.7 29.2 101.9 49 6.6 4 15.2 2 19.2-4.6s2-15.2-4.6-19.2C824 747 779.3 726.8 733 712c-26.2-62.6-41.7-130.1-46.2-198.4 92.6-0.5 186.5-1 280-1.7 7.7-0.1 13.9-6.4 13.9-14.1-0.1-7.7-6.5-13.9-14.1-13.9zM684.2 283.2c-20.2 65.6-29.6 134.3-28.1 202.6-31.1 0.1-62 0.3-92.6 0.4-16.9 0.1-33.9 0.2-50.9 0.2V324.1c58.7-5.7 116.7-19.3 171.6-40.9z m-385.7 26.2c49.5 12 100.4 17.9 151.3 17.9 11.6 0 23.2-0.4 34.8-1v160.4c-47.7 0.2-95.8 0.5-144.2 0.7-5.4-61-19.4-121.2-41.9-178zM319 719.9c18.8-66.5 26.5-135.9 23.3-204.7 47.7-0.3 95.2-0.5 142.3-0.7V684c-56.5 4.6-112.4 16.6-165.6 35.9zM698.1 702c-60.6-15.6-123.3-22.1-185.6-19.6v-168c17-0.1 34.1-0.2 51-0.2 31-0.1 62.3-0.3 93.7-0.4 4.2 64.3 17.9 128 40.9 188.2z" fill="#FFFFFF" p-id="4510"></path><path d="M676.2 452.3c-128.6 0-232.8 104.3-232.8 232.8 0 128.6 104.2 232.8 232.8 232.8 128.5 0 232.8-104.2 232.8-232.8 0-128.5-104.3-232.8-232.8-232.8z m0 419.1c-102.9 0-186.2-83.3-186.2-186.2C490 582.4 573.3 499 676.2 499c102.8 0 186.2 83.4 186.2 186.2 0 102.8-83.4 186.2-186.2 186.2z" fill="#707070" p-id="4511"></path><path d="M676.2 685.1m-186.2 0a186.2 186.2 0 1 0 372.4 0 186.2 186.2 0 1 0-372.4 0Z" fill="#FFFFFF" p-id="4512"></path><path d="M826.113 867.634l48.633-56.433 130.215 112.216-48.634 56.434z" fill="#707070" p-id="4513"></path></svg>