<?xml version="1.0" standalone="no"?><!DOCTYPE svg PUBLIC "-//W3C//DTD SVG 1.1//EN" "http://www.w3.org/Graphics/SVG/1.1/DTD/svg11.dtd"><svg t="1761739436589" class="icon" viewBox="0 0 1024 1024" version="1.1" xmlns="http://www.w3.org/2000/svg" p-id="7848" xmlns:xlink="http://www.w3.org/1999/xlink" width="200" height="200"><path d="M825.82 397.47c-14.26-6.2-29.34-11.96-45.1-17.28 4.7-24.13 7.76-47.35 9.03-69.29 0-10.82-7.21-19.84-18.03-19.84-10.83 0-19.84 7.22-19.84 18.04-0.78 19.06-3.07 39.21-6.78 60.16-39.49-10.96-82.45-19.28-127.58-24.59-28.87-35.2-59.11-67.09-89.7-94.63 16.27-14.65 32.69-27.52 49.11-38.34 9.01-7.21 10.82-18.03 5.41-27.05-7.21-9.02-18.04-10.83-27.05-5.41-18.76 13.09-37.63 28.63-56.32 46.22-0.46-0.37-0.93-0.76-1.39-1.13-64.93-50.5-124.44-77.55-174.95-77.55-23.45 0-43.29 5.41-59.52 16.23-46.89 30.66-63.12 101-45.09 194.79 1.3 7.07 2.8 14.23 4.46 21.47-8.35 2.92-16.46 5.98-24.3 9.19-84.77 34.27-131.66 84.76-133.46 138.87-1.81 55.92 45.09 108.22 133.46 147.89 13.59 5.91 27.92 11.42 42.87 16.54-3 15.91-5.29 31.48-6.8 46.59-9.02 95.59 12.63 162.32 61.32 189.37 16.23 9.02 32.46 12.63 50.5 12.63 41.48 0 90.18-19.84 142.48-61.32 11.91-9.47 23.82-19.84 35.66-30.99 0.14 0.11 0.27 0.22 0.41 0.33 64.93 50.5 124.44 77.55 174.95 77.55 21.64 0 41.48-5.41 59.52-16.23 46.89-30.66 63.12-101 45.09-194.79-1.24-6.72-2.66-13.54-4.22-20.42 8.9-3.24 17.54-6.64 25.86-10.24 84.77-34.27 131.66-84.77 133.46-138.87 1.81-55.92-45.09-108.22-133.46-147.9z m-88.38 8.12c-6.16 25.34-14.16 51.54-23.88 78.15a1034.721 1034.721 0 0 0-63.45-97.13c30.72 4.97 59.99 11.32 87.33 18.98zM652.68 615.7c-15.51 27.91-32.06 54.78-49.34 80.15-23.89 1.84-48.4 2.81-73.3 2.81H510.2c-28.32-0.9-56.09-2.81-83.01-5.7-16.73-21.06-33.01-43.26-48.65-66.45-18.72-27.81-35.51-55.93-50.33-83.95 12.08-27.94 25.88-56.01 41.31-83.78 15.76-28.66 32.55-56.03 50.07-81.73 24.8-1.99 50.28-3.04 76.19-3.04h19.84c28.32 0.9 56.09 2.81 83.01 5.7 16.73 21.06 33.01 43.26 48.65 66.45 18.12 26.93 34.45 54.15 48.92 81.28-12.63 29.44-27.18 59.06-43.52 88.26z m64.68-45.8c15.78 34.03 28.49 67.6 37.99 99.94-31.86 9.01-66.78 16.09-103.76 20.99a987.075 987.075 0 0 0 33.56-57.09 1045.79 1045.79 0 0 0 32.21-63.84zM523.25 796.51c-20.73-18.83-41.33-39.73-61.5-62.39 15.39 1.12 30.94 1.94 46.64 2.42h19.84c15.65 0 31.2-0.37 46.58-1.07-16.76 22-34.03 42.47-51.56 61.04zM371.6 685.4c-30.14-5.01-58.86-11.35-85.67-18.98 6.14-24.9 13.96-50.45 23.37-76.33 10.89 18.86 22.57 37.67 34.97 56.27 8.88 13.32 18 26.34 27.33 39.04z m-65.02-186.71c-14.91-32.63-27-64.8-36.11-95.84 31.15-8.81 65.23-15.78 101.29-20.66-12.07 18.9-23.68 38.46-34.7 58.56a930.025 930.025 0 0 0-30.48 57.94z m258.67-158.76c-16.37-1.05-32.93-1.72-49.65-1.98h-19.84c-16.42 0-32.71 0.4-48.83 1.17 17.73-23.22 36.03-44.62 54.67-63.8 21.47 19.43 42.8 41.08 63.65 64.61zM257.7 350.58c-14.43-77.56-3.61-135.27 28.86-156.91 9.02-7.21 23.45-10.82 37.87-10.82 39.06 0 92.1 24.48 148.8 68.25-25.79 27.12-50.99 57.94-74.82 91.52-48.92 4.75-95.36 13.06-137.23 24.6-1.27-5.6-2.43-11.14-3.48-16.64z m-43.29 290.37c-72.14-30.66-111.82-72.14-111.82-111.82 0-39.68 41.48-77.56 110.02-106.41 6.27-2.6 12.74-5.1 19.39-7.51 12.6 42.15 30.66 86.38 53.37 130.89-15.2 36.81-27.32 73.35-36.16 108.62-12.11-4.3-23.74-8.88-34.8-13.77z m250.7 209.22c-61.32 48.7-117.23 66.74-151.5 46.89-34.27-19.84-50.5-75.75-41.48-153.31 1.37-13.2 3.34-26.73 5.87-40.53 39.32 11.03 82.1 19.53 127.05 25.24 29.19 35.55 59.78 67.71 90.71 95.41-10.19 9.49-20.42 18.28-30.65 26.3z m303-128.06c14.43 77.56 3.61 135.27-28.86 156.91-9.01 7.21-23.45 10.82-37.87 10.82-41.09 0-92.8-24.79-149.87-69.08 24.95-26.38 49.32-56.19 72.46-88.77 50.27-4.87 97.95-13.61 140.78-26.05a548.77 548.77 0 0 1 3.36 16.17z m45.09-72.14c-7.29 3.02-14.85 5.92-22.65 8.69-12.68-42.75-31-87.65-54.11-132.82 15.04-37.2 27.19-73.97 36.13-109.29 13.57 4.7 26.54 9.76 38.83 15.19 72.14 30.66 111.82 72.14 111.82 111.82 0 39.68-41.49 77.56-110.02 106.41z" fill="#323333" p-id="7849"></path><path d="M613 179.24c0 52.3 43.29 95.59 95.59 95.59 52.31 0 95.59-43.29 95.59-95.59 0-52.3-43.29-95.59-95.59-95.59S613 125.13 613 179.24z m0 0" fill="#BB1B21" p-id="7850"></path></svg>