<?xml version="1.0" standalone="no"?><!DOCTYPE svg PUBLIC "-//W3C//DTD SVG 1.1//EN" "http://www.w3.org/Graphics/SVG/1.1/DTD/svg11.dtd"><svg t="1761739314360" class="icon" viewBox="0 0 1024 1024" version="1.1" xmlns="http://www.w3.org/2000/svg" p-id="4349" xmlns:xlink="http://www.w3.org/1999/xlink" width="200" height="200"><path d="M95.12 136.07c21.14-26.86 54.65-43.44 88.85-43.82h237c24.72 0.36 49.25 8.88 68.8 24.02 25.48 19.37 42.23 49.67 44.99 81.57 0.94 11.61 0.3 23.27 0.49 34.91h283.74c14.01 0.06 28.2-0.58 42 2.4 30 5.86 57.13 24.38 73.92 49.87 11.96 18.01 18.7 39.45 19.17 61.07 0.38 13.97 0.06 27.95 0.17 41.93v182.97c-0.02 4.54 0.23 9.16-0.93 13.6-1.94 7.25-7.66 13.41-14.8 15.79-7.82 2.59-17.05 1.02-23.16-4.63-22.28-19.56-48.21-35.01-76.18-44.88-34.74-12.39-72.47-16.2-109-11.13-38.78 5.21-76.11 20.56-107.4 44.04-29.92 22.29-54.37 51.87-70.55 85.49-19.5 39.95-26.79 85.63-21.3 129.71 3.98 32.48 15.13 64.01 32.17 91.93 2.36 3.79 5 7.59 5.82 12.07 0.93 5.54 0.33 11.49-2.62 16.37-3.94 7.23-12.09 11.73-20.28 11.65H201.97c-10.61-0.11-21.28 0.47-31.82-1.1-31.05-4.07-59.94-21.55-78.23-46.93-14.29-19.6-22.06-43.74-22.17-67.97 0-202.35-0.01-404.7 0.01-607.05 0.15-25.91 9.1-51.68 25.36-71.88m36.71 28.79c-10.07 12.34-15.51 28.21-15.58 44.11-0.01 201.67 0 403.35 0 605.02 0.03 14.25 4.28 28.5 12.45 40.2 10.62 15.55 27.78 26.48 46.41 29.39 7.23 1.28 14.59 0.85 21.9 0.92 103.37 0 206.73-0.01 310.1 0-23.32-51.48-30.13-110.11-19.75-165.63 11.88-65.15 48.2-125.32 99.95-166.57 33.91-27.21 74.25-46.39 116.83-55.25 41.75-8.77 85.51-7.93 126.84 2.69 27.05 6.89 52.95 18.02 76.78 32.54-0.02-60.08 0-120.15-0.01-180.23-0.09-7.07-0.63-14.19-2.57-21.03-4.52-17.04-15.9-32.07-30.9-41.28-11.38-7.17-24.88-10.53-38.27-10.49-108.33 0-216.66-0.01-324.99 0.01-11.45 0-21.6-9.9-22.2-21.27-0.2-17.34 0.06-34.7-0.13-52.04-0.72-20.61-11.17-40.56-27.65-52.93-11.69-8.99-26.31-14-41.04-14.27-78.32 0-156.65 0-234.97-0.01-20.44 0.29-40.5 10.1-53.2 26.12z" fill="#0C00BF" p-id="4350"></path><path d="M277.48 383.75c1.78-0.48 3.62-0.72 5.46-0.75h452.09c4 0.02 8.12-0.3 12 0.9 7.34 2.14 13.46 8.1 15.66 15.44 2.28 7.22 0.86 15.57-3.9 21.5-4.2 5.39-10.85 8.85-17.71 8.9-150.7 0.02-301.39 0-452.09 0.01-4.75 0.03-9.69 0.34-14.15-1.64-8.84-3.41-14.97-12.64-14.62-22.12-0.08-10.18 7.4-19.76 17.26-22.24zM741.59 561.86c36.6-3.49 74.14 2.55 107.56 17.99 44.71 20.34 81.66 57.03 102.44 101.52 19.07 40.37 24.44 86.92 15.59 130.64-7.15 35.82-24.02 69.62-48.25 96.94-22.91 25.98-52.32 46.18-84.86 58.07-41.08 15.12-86.92 16.81-129.04 4.95-38.97-10.87-74.51-33.48-101.05-64-18.79-21.5-33.12-46.89-41.74-74.12-12.86-40.31-13.03-84.54-0.65-124.99 9.51-31.1 26.42-59.9 48.95-83.34 34.18-36.01 81.6-59.12 131.05-63.66m-0.98 46.93c-41.05 5.17-79.57 26.99-105.46 59.21-23.22 28.54-36.3 65.16-36.16 101.98-0.24 34.68 11.16 69.3 31.88 97.11 15.75 21.35 36.79 38.79 60.74 50.21 37.22 18.07 81.43 20.87 120.71 7.98 35.99-11.67 67.55-36.34 87.59-68.42 21.97-34.54 29.82-77.58 21.91-117.7-8.13-42.96-34.66-81.9-71.37-105.56-32.1-21.06-71.82-29.88-109.84-24.81zM278.42 732.63c3.78-0.85 7.67-0.63 11.52-0.63 44.34 0.01 88.69-0.01 133.03 0.01 6.54-0.03 13.08 2.66 17.47 7.54 5.36 5.59 7.41 13.98 5.58 21.46-1.77 7.72-7.8 14.27-15.35 16.67-4.05 1.53-8.42 0.99-12.64 1.07-45.01 0.01-90.02-0.02-135.03 0.01-7.14 0.09-14.1-3.67-18.27-9.41-4.47-5.97-5.71-14.17-3.37-21.24 2.43-7.69 9.16-13.83 17.06-15.48z" fill="#0C00BF" p-id="4351"></path><path d="M276.41 558.63c4.39-1.49 9.06-1.11 13.61-1.13 44.35 0 88.69 0.01 133.04-0.01 6.41-0.09 12.81 2.59 17.17 7.32 6.76 6.78 8.35 17.96 4.03 26.45-3.59 7.68-11.79 12.97-20.28 12.99-47.33-0.02-94.67 0.03-142-0.02-11.51-0.4-21.47-10.69-21.74-22.15-0.73-10.29 6.29-20.51 16.17-23.45zM751.33 657.29c7.27-4.61 17.12-4.64 24.44-0.09 6.88 4 11.26 11.82 11.24 19.76-0.02 26.59 0 53.17-0.01 79.76 23.27 13.53 46.63 26.91 69.92 40.42 9.91 6.04 13.63 19.91 8.3 30.17-4.22 8.91-14.54 14.25-24.25 12.75-5.46-0.59-10.01-3.85-14.65-6.47-20.89-12.07-41.8-24.12-62.69-36.19-22.68 13.06-45.34 26.15-68 39.25-4.63 2.83-10.18 4.18-15.58 3.46-8.79-0.99-16.66-7.39-19.28-15.85-3.53-9.98 0.83-22.08 10.01-27.39 23.13-13.4 46.3-26.75 69.45-40.11 0.04-26.59 0.02-53.19 0.01-79.78-0.1-7.9 4.3-15.67 11.09-19.69z" fill="#FC4E7F" p-id="4352"></path></svg>