<?xml version="1.0" standalone="no"?><!DOCTYPE svg PUBLIC "-//W3C//DTD SVG 1.1//EN" "http://www.w3.org/Graphics/SVG/1.1/DTD/svg11.dtd"><svg t="1761739350979" class="icon" viewBox="0 0 1024 1024" version="1.1" xmlns="http://www.w3.org/2000/svg" p-id="5724" xmlns:xlink="http://www.w3.org/1999/xlink" width="200" height="200"><path d="M97.77 126.76c21.28-24.19 53-38.65 85.21-39 211.32-0.03 422.64 0 633.96-0.01 12.56 0.14 25.21-0.63 37.66 1.46 32.5 4.93 62.35 24.56 79.89 52.35 11.89 18.52 18.16 40.48 18.26 62.46v436.97c-0.26 14.51 0.72 29.1-1 43.55-4.15 33.8-24.14 65.14-52.95 83.26-20.56 13.32-45.36 19.17-69.72 18.2-98.45 0-196.89-0.01-295.33 0 0 34.92-0.01 69.83 0.01 104.75 90.41 0 180.81 0.01 271.22 0 7.74 0.03 15.33 4.4 19.24 11.09 4.38 7.07 4.47 16.56 0.32 23.75-4.12 7.17-12.2 11.83-20.5 11.66-195.67-0.01-391.35 0-587.02 0-7.31 0.08-14.57-3.35-18.91-9.27-3.83-5.02-5.41-11.64-4.35-17.85 1.24-8.53 7.79-15.95 16.02-18.43 3.93-1.28 8.12-0.93 12.2-0.95h265.26c0.02-34.92 0.01-69.83 0.01-104.75h-302.2c-18.45-0.05-36.9-4.3-53.32-12.76-28.75-14.59-50.9-41.64-59.27-72.81-3.24-11.52-4.24-23.51-4.22-35.43 0.04-153.34-0.03-306.68 0.04-460.02-0.16-28.53 10.35-57.01 29.49-78.22m84.44 7.56c-14.03 0.56-27.88 5.38-39.1 13.83-13.23 9.75-22.8 24.35-26.44 40.37-1.95 8-1.95 16.28-1.92 24.46V653c0.07 8.36-0.3 16.75 0.65 25.08 2.08 17.38 11.06 33.78 24.51 44.98 12.72 10.79 29.4 16.59 46.05 16.45 217.03-0.04 434.06 0.03 651.09-0.04 19.54-0.23 38.81-9.03 51.65-23.79 8.6-9.76 14.47-21.94 16.53-34.8 1.39-7.87 0.96-15.89 1.02-23.83V220.98c-0.1-12.05 0.8-24.39-2.8-36.07-6.08-21.58-23.2-39.57-44.41-46.78-8.05-2.8-16.6-4.01-25.11-3.89-217.24 0.07-434.48-0.09-651.72 0.08z" fill="#0C00BF" p-id="5725"></path><path d="M619.43 216.45c4.3-5.05 10.89-7.93 17.5-7.95 42.05 0 84.09-0.01 126.13 0 8.02 0.02 15.95 4.42 19.89 11.46 2.39 3.89 3.3 8.5 3.3 13.02v117.01c-0.02 5.32 0.37 10.82-1.51 15.91-3.15 8.93-12.3 15.26-21.76 15.13-11.99 0.4-23.09-9.99-23.23-22.01v-70.37c-73.22 73.16-146.39 146.38-219.58 219.56-6.41 6.28-16.67 7.95-24.86 4.42-5.37-2.18-9.18-6.71-13.21-10.67-28.28-28.27-56.56-56.56-84.84-84.83-50.05 50.01-100.06 100.07-150.11 150.09-5.38 5.47-13.59 7.91-21.09 6.33-8.74-1.66-16.2-8.8-18.05-17.52-1.86-7.97 0.74-16.68 6.66-22.31 52.34-52.37 104.7-104.71 157.05-157.06 4.08-3.87 7.71-8.26 12.24-11.62 8.77-6.35 21.96-5.34 29.58 2.38 30.3 30.26 60.55 60.58 90.86 90.82C572.11 390.47 639.89 322.77 707.6 255h-65.67c-3.62-0.04-7.31 0.29-10.84-0.67-7.01-1.73-13.04-6.98-15.7-13.7-3.29-7.96-1.79-17.76 4.04-24.18zM717.5 444.61c7.38-1.43 15.47 0.68 20.83 6.06 4.72 4.44 7.2 10.92 7.15 17.37 0.05 52.97-0.01 105.95 0.03 158.92 0.18 6.05-0.31 12.53-3.9 17.64-4.93 7.72-14.72 11.81-23.69 10.06-10.33-1.65-18.76-11.19-18.91-21.67-0.02-53.69 0-107.37-0.01-161.06-0.03-4.24-0.31-8.63 1.34-12.64 2.65-7.45 9.41-13.16 17.16-14.68z" fill="#0C00BF" p-id="5726"></path><path d="M399.16 480.19c7.18-1.82 15.16 0.09 20.75 4.94 5.2 4.37 8.13 11.15 8.09 17.92v121.97c-0.04 4.33 0.31 8.77-0.86 12.99-1.95 7.36-7.82 13.53-15.07 15.85-7.6 2.54-16.52 0.91-22.55-4.42-5.05-4.25-8.1-10.75-8.03-17.36 0.03-43.36 0-86.72 0.01-130.08 0.08-10.16 7.77-19.59 17.66-21.81zM503.38 540.58c6-1.93 12.78-1.31 18.31 1.74 7.1 3.82 11.96 11.56 12.06 19.66 0.01 21.68-0.01 43.36 0 65.04-0.03 3.64 0.28 7.37-0.79 10.91-1.99 7.64-8.23 14.01-15.82 16.15-5.77 1.73-12.2 1.11-17.51-1.73-7.45-3.81-12.4-11.94-12.37-20.31-0.03-21.33 0-42.67-0.01-64 0.01-4.01-0.26-8.1 0.96-11.97 2.07-7.26 7.99-13.23 15.17-15.49zM293.1 545.22c7.42-1.96 15.72 0.09 21.41 5.23 5.21 4.63 7.9 11.67 7.74 18.59-0.01 20.66 0.02 41.32-0.02 61.98 0.06 6.86-2.7 13.81-7.98 18.29-5.96 5.28-14.66 7.06-22.25 4.72-9.11-2.66-16.07-11.48-16.25-21 0-22.01 0.02-44.02-0.01-66.03-0.08-10.09 7.6-19.46 17.36-21.78z" fill="#0C00BF" p-id="5727"></path><path d="M611.42 501.64c9.31-2.05 19.62 2.1 24.61 10.3 2.01 3.3 3.38 7.1 3.47 11v110.1c-0.19 6.99-3.95 13.78-9.71 17.74-6.69 4.87-16.07 5.59-23.49 2-6.61-3.06-11.58-9.48-12.82-16.66-0.72-4.02-0.45-8.12-0.48-12.17v-92.98c0-4.64-0.26-9.41 1.23-13.87 2.44-7.71 9.25-13.86 17.19-15.46z" fill="#FC4E7F" p-id="5728"></path></svg>