<?xml version="1.0" standalone="no"?><!DOCTYPE svg PUBLIC "-//W3C//DTD SVG 1.1//EN" "http://www.w3.org/Graphics/SVG/1.1/DTD/svg11.dtd"><svg t="1761739260720" class="icon" viewBox="0 0 1024 1024" version="1.1" xmlns="http://www.w3.org/2000/svg" p-id="3880" xmlns:xlink="http://www.w3.org/1999/xlink" width="200" height="200"><path d="M848 848a32 32 0 1 1 0 64H176a32 32 0 1 1 0-64h672z m48-736a64 64 0 0 1 64 64v512a64 64 0 0 1-64 64H128a64 64 0 0 1-64-64V176a64 64 0 0 1 64-64h768z m0 64H128v512h768V176z" fill="#17191C" p-id="3881"></path><path d="M624.672 272l113.792 114.288L784 432l-159.328 160-45.536-45.712 113.808-114.304-113.808-114.272L624.672 272z m-225.344 0l45.536 45.712L331.04 432l113.824 114.288L399.328 592l-113.808-114.304v0.016L240 432l159.328-160z" fill="#1062FE" p-id="3882"></path></svg>