<?xml version="1.0" standalone="no"?><!DOCTYPE svg PUBLIC "-//W3C//DTD SVG 1.1//EN" "http://www.w3.org/Graphics/SVG/1.1/DTD/svg11.dtd"><svg t="1761739378019" class="icon" viewBox="0 0 1024 1024" version="1.1" xmlns="http://www.w3.org/2000/svg" p-id="6043" xmlns:xlink="http://www.w3.org/1999/xlink" width="200" height="200"><path d="M347.86366 688.679045a245.346784 245.346784 0 1 0 341.756587-352.111649 245.346784 245.346784 0 1 0-341.756587 352.111649Z" fill="#E9EAEB" p-id="6044"></path><path d="M883.894073 592.706179l-25.825977-5.165195c5.165195-24.534678 9.039092-51.651955 9.039092-77.477932 0-191.112232-156.247163-347.359395-347.359395-347.359395-103.303909 0-200.151324 45.19546-267.298865 125.25599L234.370744 271.172762c71.021438-85.225725 175.616646-134.295082 286.668348-134.295082 205.31652 0 373.185372 167.868852 373.185372 373.185372-1.291299 27.117276-3.873897 55.525851-10.330391 82.643127zM154.310214 579.79319c-3.873897-23.24338-6.456494-46.486759-6.456494-69.730138 0-25.825977 2.582598-51.651955 7.747793-77.477932l25.825978 5.165195c-5.165195 23.24338-7.747793 47.778058-7.747794 72.312737 0 21.952081 2.582598 43.904161 6.456495 64.564943l-25.825978 5.165195zM264.070618 779.944515c-16.786885-16.786885-33.57377-34.865069-47.778058-54.234553l20.660782-15.495586c12.912989 18.078184 27.117276 34.865069 43.904161 50.360656l-16.786885 19.369483zM758.638083 796.7314l-16.786885-19.369483c18.078184-15.495586 34.865069-32.282472 50.360656-51.651955l20.660782 15.495587c-15.495586 20.660782-33.57377 38.738966-54.234553 55.525851z" fill="#BCC0C4" p-id="6045"></path><path d="M195.631778 641.775536h271.172762v25.825977h-271.172762zM686.325347 525.558638H533.952081c-16.786885 0-40.030265-9.039092-51.651955-24.534678L399.656999 370.602774c-5.165195-6.456494-16.786885-12.912989-28.408575-12.912988H182.718789v-25.825978h188.529635c16.786885 0 38.738966 9.039092 49.069357 24.534679L502.960908 486.819672c3.873897 6.456494 18.078184 12.912989 29.699874 12.912989h152.373266v25.825977zM496.504414 835.470366H337.674653v-25.825978h158.829761c11.62169 0 24.534678-6.456494 29.699874-12.912988l82.643127-123.964691c11.62169-18.078184 37.447667-18.078184 49.069357-18.078184h182.07314v25.825977h-180.781841c-6.456494 0-23.24338 0-28.408575 6.456494l-82.643128 123.964691c-10.330391 15.495586-33.57377 24.534678-51.651954 24.534679zM557.19546 357.689786h129.129887v25.825977h-129.129887zM712.151324 357.689786h25.825977v25.825977h-25.825977zM763.803279 357.689786h25.825977v25.825977h-25.825977zM428.065574 861.296343h25.825977v25.825977h-25.825977zM479.717528 861.296343h25.825978v25.825977h-25.825978zM531.369483 861.296343h25.825977v25.825977h-25.825977zM273.10971 590.123581h25.825977v25.825978h-25.825977zM324.761665 590.123581h25.825977v25.825978h-25.825977zM376.413619 590.123581h25.825977v25.825978h-25.825977zM621.760404 603.03657h25.825977v25.825977h-25.825977zM673.412358 603.03657h25.825977v25.825977h-25.825977zM725.064313 603.03657h25.825977v25.825977h-25.825977zM298.935687 280.211854h25.825978v25.825977h-25.825978zM350.587642 280.211854h25.825977v25.825977h-25.825977zM402.239596 280.211854h25.825978v25.825977h-25.825978z" fill="#2A5082" p-id="6046"></path><path d="M337.674653 822.557377m-51.651954 0a51.651955 51.651955 0 1 0 103.303909 0 51.651955 51.651955 0 1 0-103.303909 0Z" fill="#A3D4FF" p-id="6047"></path><path d="M337.674653 887.12232c-36.156368 0-64.564943-28.408575-64.564943-64.564943s28.408575-64.564943 64.564943-64.564943 64.564943 28.408575 64.564943 64.564943-28.408575 64.564943-64.564943 64.564943z m0-103.303909c-21.952081 0-38.738966 16.786885-38.738966 38.738966s16.786885 38.738966 38.738966 38.738966 38.738966-16.786885 38.738966-38.738966-16.786885-38.738966-38.738966-38.738966z" fill="#2A5082" p-id="6048"></path><path d="M673.412358 822.557377m-51.651954 0a51.651955 51.651955 0 1 0 103.303909 0 51.651955 51.651955 0 1 0-103.303909 0Z" fill="#A3D4FF" p-id="6049"></path><path d="M673.412358 887.12232c-36.156368 0-64.564943-28.408575-64.564943-64.564943s28.408575-64.564943 64.564943-64.564943 64.564943 28.408575 64.564943 64.564943-28.408575 64.564943-64.564943 64.564943z m0-103.303909c-21.952081 0-38.738966 16.786885-38.738966 38.738966s16.786885 38.738966 38.738966 38.738966 38.738966-16.786885 38.738966-38.738966-16.786885-38.738966-38.738966-38.738966z" fill="#2A5082" p-id="6050"></path><path d="M841.281211 667.601513m-51.651955 0a51.651955 51.651955 0 1 0 103.303909 0 51.651955 51.651955 0 1 0-103.303909 0Z" fill="#A3D4FF" p-id="6051"></path><path d="M841.281211 732.166456c-36.156368 0-64.564943-28.408575-64.564944-64.564943s28.408575-64.564943 64.564944-64.564943 64.564943 28.408575 64.564943 64.564943-28.408575 64.564943-64.564943 64.564943z m0-103.303909c-21.952081 0-38.738966 16.786885-38.738966 38.738966s16.786885 38.738966 38.738966 38.738966 38.738966-16.786885 38.738966-38.738966-16.786885-38.738966-38.738966-38.738966z" fill="#2A5082" p-id="6052"></path><path d="M479.717528 654.688525m-51.651954 0a51.651955 51.651955 0 1 0 103.303909 0 51.651955 51.651955 0 1 0-103.303909 0Z" fill="#A3D4FF" p-id="6053"></path><path d="M479.717528 719.253468c-36.156368 0-64.564943-28.408575-64.564943-64.564943s28.408575-64.564943 64.564943-64.564944 64.564943 28.408575 64.564944 64.564944-28.408575 64.564943-64.564944 64.564943z m0-103.303909c-21.952081 0-38.738966 16.786885-38.738966 38.738966s16.786885 38.738966 38.738966 38.738966 38.738966-16.786885 38.738966-38.738966-16.786885-38.738966-38.738966-38.738966z" fill="#2A5082" p-id="6054"></path><path d="M350.587642 499.732661m-51.651955 0a51.651955 51.651955 0 1 0 103.303909 0 51.651955 51.651955 0 1 0-103.303909 0Z" fill="#A3D4FF" p-id="6055"></path><path d="M350.587642 564.297604c-36.156368 0-64.564943-28.408575-64.564943-64.564943s28.408575-64.564943 64.564943-64.564943 64.564943 28.408575 64.564943 64.564943-28.408575 64.564943-64.564943 64.564943z m0-103.303909c-21.952081 0-38.738966 16.786885-38.738966 38.738966s16.786885 38.738966 38.738966 38.738966 38.738966-16.786885 38.738966-38.738966-16.786885-38.738966-38.738966-38.738966z" fill="#2A5082" p-id="6056"></path><path d="M686.325347 512.645649m-51.651955 0a51.651955 51.651955 0 1 0 103.303909 0 51.651955 51.651955 0 1 0-103.303909 0Z" fill="#A3D4FF" p-id="6057"></path><path d="M686.325347 577.210593c-36.156368 0-64.564943-28.408575-64.564943-64.564944s28.408575-64.564943 64.564943-64.564943 64.564943 28.408575 64.564943 64.564943-28.408575 64.564943-64.564943 64.564944z m0-103.30391c-21.952081 0-38.738966 16.786885-38.738966 38.738966s16.786885 38.738966 38.738966 38.738966 38.738966-16.786885 38.738966-38.738966-16.786885-38.738966-38.738966-38.738966z" fill="#2A5082" p-id="6058"></path><path d="M544.282472 370.602774m-51.651955 0a51.651955 51.651955 0 1 0 103.303909 0 51.651955 51.651955 0 1 0-103.303909 0Z" fill="#A3D4FF" p-id="6059"></path><path d="M544.282472 435.167718c-36.156368 0-64.564943-28.408575-64.564944-64.564944s28.408575-64.564943 64.564944-64.564943 64.564943 28.408575 64.564943 64.564943-28.408575 64.564943-64.564943 64.564944z m0-103.30391c-21.952081 0-38.738966 16.786885-38.738966 38.738966s16.786885 38.738966 38.738966 38.738966 38.738966-16.786885 38.738966-38.738966-16.786885-38.738966-38.738966-38.738966z" fill="#2A5082" p-id="6060"></path><path d="M182.718789 344.776797m-51.651954 0a51.651955 51.651955 0 1 0 103.303909 0 51.651955 51.651955 0 1 0-103.303909 0Z" fill="#A3D4FF" p-id="6061"></path><path d="M182.718789 409.34174c-36.156368 0-64.564943-28.408575-64.564943-64.564943s28.408575-64.564943 64.564943-64.564943 64.564943 28.408575 64.564944 64.564943-28.408575 64.564943-64.564944 64.564943z m0-103.303909c-21.952081 0-38.738966 16.786885-38.738966 38.738966s16.786885 38.738966 38.738966 38.738966 38.738966-16.786885 38.738966-38.738966-16.786885-38.738966-38.738966-38.738966z" fill="#2A5082" p-id="6062"></path><path d="M182.718789 654.688525m-51.651954 0a51.651955 51.651955 0 1 0 103.303909 0 51.651955 51.651955 0 1 0-103.303909 0Z" fill="#A3D4FF" p-id="6063"></path><path d="M182.718789 719.253468c-36.156368 0-64.564943-28.408575-64.564943-64.564943s28.408575-64.564943 64.564943-64.564944 64.564943 28.408575 64.564944 64.564944-28.408575 64.564943-64.564944 64.564943z m0-103.303909c-21.952081 0-38.738966 16.786885-38.738966 38.738966s16.786885 38.738966 38.738966 38.738966 38.738966-16.786885 38.738966-38.738966-16.786885-38.738966-38.738966-38.738966z" fill="#2A5082" p-id="6064"></path></svg>