<?xml version="1.0" standalone="no"?><!DOCTYPE svg PUBLIC "-//W3C//DTD SVG 1.1//EN" "http://www.w3.org/Graphics/SVG/1.1/DTD/svg11.dtd"><svg t="1761739388070" class="icon" viewBox="0 0 1024 1024" version="1.1" xmlns="http://www.w3.org/2000/svg" p-id="6227" xmlns:xlink="http://www.w3.org/1999/xlink" width="200" height="200"><path d="M789.629256 524.267339c0 153.664565-123.964691 277.629256-277.629256 277.629256s-277.629256-123.964691-277.629256-277.629256 123.964691-277.629256 277.629256-277.629256 277.629256 125.25599 277.629256 277.629256z" fill="#E9EAEB" p-id="6228"></path><path d="M404.822194 739.91425L386.74401 721.836066l118.799496-118.799496v-20.660782h25.825977v32.282472zM531.369483 453.245902h-25.825977v-30.991173l120.090794-120.090795 18.078184 18.078185-112.343001 113.6343zM398.3657 384.807062l-18.078184-18.078184 125.25599-125.25599v-33.573771h25.825977v45.195461zM531.369483 814.809584h-25.825977v-43.904162l133.003783-120.090794 18.078184 19.369483-125.25599 112.343001zM651.460277 493.276166l-18.078184-19.369483 117.508197-116.216897V207.899117h25.825977v160.12106zM273.10971 814.809584h-25.825977V667.601513l125.25599-123.964691 18.078184 19.369483-117.508197 116.216898z" fill="#2A5082" p-id="6229"></path><path d="M440.978562 724.418663c0 28.408575-23.24338 51.651955-51.651954 51.651955s-51.651955-23.24338-51.651955-51.651955 23.24338-51.651955 51.651955-51.651954 51.651955 23.24338 51.651954 51.651954z" fill="#A3D4FF" p-id="6230"></path><path d="M389.326608 788.983607c-36.156368 0-64.564943-28.408575-64.564943-64.564944s28.408575-64.564943 64.564943-64.564943 64.564943 28.408575 64.564943 64.564943-28.408575 64.564943-64.564943 64.564944z m0-103.30391c-21.952081 0-38.738966 16.786885-38.738966 38.738966s16.786885 38.738966 38.738966 38.738966 38.738966-16.786885 38.738966-38.738966-16.786885-38.738966-38.738966-38.738966z" fill="#2A5082" p-id="6231"></path><path d="M440.978562 543.636822c0 28.408575-23.24338 51.651955-51.651954 51.651955s-51.651955-23.24338-51.651955-51.651955 23.24338-51.651955 51.651955-51.651954 51.651955 23.24338 51.651954 51.651954z" fill="#A3D4FF" p-id="6232"></path><path d="M389.326608 608.201765c-36.156368 0-64.564943-28.408575-64.564943-64.564943s28.408575-64.564943 64.564943-64.564943 64.564943 28.408575 64.564943 64.564943-28.408575 64.564943-64.564943 64.564943z m0-103.303909c-21.952081 0-38.738966 16.786885-38.738966 38.738966s16.786885 38.738966 38.738966 38.738966 38.738966-16.786885 38.738966-38.738966-16.786885-38.738966-38.738966-38.738966z" fill="#2A5082" p-id="6233"></path><path d="M440.978562 375.76797c0 28.408575-23.24338 51.651955-51.651954 51.651954s-51.651955-23.24338-51.651955-51.651954 23.24338-51.651955 51.651955-51.651955 51.651955 23.24338 51.651954 51.651955z" fill="#A3D4FF" p-id="6234"></path><path d="M389.326608 440.332913c-36.156368 0-64.564943-28.408575-64.564943-64.564943s28.408575-64.564943 64.564943-64.564944 64.564943 28.408575 64.564943 64.564944-28.408575 64.564943-64.564943 64.564943z m0-103.303909c-21.952081 0-38.738966 16.786885-38.738966 38.738966s16.786885 38.738966 38.738966 38.738966 38.738966-16.786885 38.738966-38.738966-16.786885-38.738966-38.738966-38.738966z" fill="#2A5082" p-id="6235"></path><path d="M686.325347 311.203026c0 28.408575-23.24338 51.651955-51.651955 51.651955s-51.651955-23.24338-51.651954-51.651955 23.24338-51.651955 51.651954-51.651954 51.651955 23.24338 51.651955 51.651954z" fill="#A3D4FF" p-id="6236"></path><path d="M634.673392 375.76797c-36.156368 0-64.564943-28.408575-64.564943-64.564944s28.408575-64.564943 64.564943-64.564943 64.564943 28.408575 64.564943 64.564943-28.408575 64.564943-64.564943 64.564944z m0-103.303909c-21.952081 0-38.738966 16.786885-38.738966 38.738965s16.786885 38.738966 38.738966 38.738966 38.738966-16.786885 38.738966-38.738966-16.786885-38.738966-38.738966-38.738965z" fill="#2A5082" p-id="6237"></path><path d="M686.325347 491.984868c0 28.408575-23.24338 51.651955-51.651955 51.651954s-51.651955-23.24338-51.651954-51.651954 23.24338-51.651955 51.651954-51.651955 51.651955 23.24338 51.651955 51.651955z" fill="#A3D4FF" p-id="6238"></path><path d="M634.673392 556.549811c-36.156368 0-64.564943-28.408575-64.564943-64.564943s28.408575-64.564943 64.564943-64.564944 64.564943 28.408575 64.564943 64.564944-28.408575 64.564943-64.564943 64.564943z m0-103.303909c-21.952081 0-38.738966 16.786885-38.738966 38.738966s16.786885 38.738966 38.738966 38.738966 38.738966-16.786885 38.738966-38.738966-16.786885-38.738966-38.738966-38.738966z" fill="#2A5082" p-id="6239"></path><path d="M686.325347 672.766709c0 28.408575-23.24338 51.651955-51.651955 51.651954s-51.651955-23.24338-51.651954-51.651954 23.24338-51.651955 51.651954-51.651955 51.651955 23.24338 51.651955 51.651955z" fill="#A3D4FF" p-id="6240"></path><path d="M634.673392 737.331652c-36.156368 0-64.564943-28.408575-64.564943-64.564943s28.408575-64.564943 64.564943-64.564944 64.564943 28.408575 64.564943 64.564944-28.408575 64.564943-64.564943 64.564943z m0-103.303909c-21.952081 0-38.738966 16.786885-38.738966 38.738966s16.786885 38.738966 38.738966 38.738966 38.738966-16.786885 38.738966-38.738966-16.786885-38.738966-38.738966-38.738966zM557.19546 182.07314h167.868853v25.825977h-167.868853zM221.457755 840.635561h-51.651954v-361.563682c0-163.994956 133.003783-296.998739 296.998739-296.998739h12.912988v25.825977h-12.912988c-149.790668 0-271.172762 121.382093-271.172762 271.172762v335.737705h25.825977v25.825977zM298.935687 814.809584h180.781841v25.825977h-180.781841z" fill="#2A5082" p-id="6241"></path><path d="M557.19546 840.635561v-25.825977c149.790668 0 271.172762-121.382093 271.172762-271.172762v-335.737705h-25.825977v-25.825977h51.651954v361.563682c0 163.994956-133.003783 296.998739-296.998739 296.998739zM247.283733 840.635561h25.825977v25.825977h-25.825977zM247.283733 892.287516h25.825977v25.825977h-25.825977zM505.543506 840.635561h25.825977v25.825977h-25.825977zM505.543506 892.287516h25.825977v25.825977h-25.825977zM505.543506 104.595208h25.825977v25.825977h-25.825977zM505.543506 156.247163h25.825977v25.825977h-25.825977zM750.89029 104.595208h25.825977v25.825977h-25.825977zM750.89029 156.247163h25.825977v25.825977h-25.825977zM505.543506 479.071879h25.825977v25.825977h-25.825977zM505.543506 530.723834h25.825977v25.825977h-25.825977z" fill="#2A5082" p-id="6242"></path></svg>