<?xml version="1.0" standalone="no"?><!DOCTYPE svg PUBLIC "-//W3C//DTD SVG 1.1//EN" "http://www.w3.org/Graphics/SVG/1.1/DTD/svg11.dtd"><svg t="1761739401668" class="icon" viewBox="0 0 1024 1024" version="1.1" xmlns="http://www.w3.org/2000/svg" p-id="6405" xmlns:xlink="http://www.w3.org/1999/xlink" width="200" height="200"><path d="M325.604393 957.39404a15.445967 15.445967 0 0 1-13.395972-7.729983 15.449967 15.449967 0 0 1 5.655989-21.107956l151.67568-87.569815a15.451967 15.451967 0 0 1 21.107955 5.655988 15.449967 15.449967 0 0 1-5.655988 21.107956l-151.67568 87.569815a15.379968 15.379968 0 0 1-7.711984 2.073995zM701.247601 959.040037a15.373968 15.373968 0 0 1-7.711984-2.073996l-154.527674-89.215811a15.449967 15.449967 0 0 1-5.655988-21.107956 15.451967 15.451967 0 0 1 21.107955-5.655988l154.527674 89.215812a15.449967 15.449967 0 0 1 5.655989 21.107955 15.449967 15.449967 0 0 1-13.395972 7.729984zM100.682868 571.410855a15.443967 15.443967 0 0 1-13.395972-7.729984 15.451967 15.451967 0 0 1 5.655988-21.107955l152.981677-88.321814a15.451967 15.451967 0 1 1 15.451968 26.763943l-152.981678 88.321814a15.379968 15.379968 0 0 1-7.711983 2.073996zM472.912082 569.396859a15.373968 15.373968 0 0 1-7.711983-2.073996l-144.531695-83.443824a15.449967 15.449967 0 0 1-5.655988-21.107955 15.449967 15.449967 0 0 1 21.107955-5.655988l144.531695 83.443824a15.449967 15.449967 0 0 1 5.655988 21.107955 15.445967 15.445967 0 0 1-13.395972 7.729984zM512 809.954352a15.451967 15.451967 0 0 1-15.451967-15.451968v-176.689627a15.451967 15.451967 0 1 1 30.903934 0v176.689627a15.451967 15.451967 0 0 1-15.451967 15.451968zM251.10655 957.39404a15.373968 15.373968 0 0 1-7.711983-2.073995l-151.483681-87.457816a15.451967 15.451967 0 0 1-5.655988-21.107955 15.449967 15.449967 0 0 1 21.107956-5.655988l151.48368 87.457815a15.451967 15.451967 0 0 1-7.739984 28.837939zM65.082943 810.75035a15.451967 15.451967 0 0 1-15.451968-15.451968v-175.585629a15.451967 15.451967 0 1 1 30.903935 0v175.585629a15.451967 15.451967 0 0 1-15.451967 15.451968zM548.121924 571.108855a15.445967 15.445967 0 0 1-13.395972-7.729983 15.451967 15.451967 0 0 1 5.655988-21.107956l154.929673-89.445811a15.449967 15.449967 0 0 1 21.107956 5.655988 15.451967 15.451967 0 0 1-5.655988 21.107955l-154.929673 89.445812a15.367968 15.367968 0 0 1-7.711984 2.073995zM927.887123 574.048849a15.373968 15.373968 0 0 1-7.711984-2.073996l-160.021662-92.387805a15.449967 15.449967 0 0 1-5.655989-21.107955 15.451967 15.451967 0 0 1 21.107956-5.655988l160.021662 92.387805a15.449967 15.449967 0 0 1 5.655988 21.107955 15.445967 15.445967 0 0 1-13.395971 7.729984zM958.917057 809.954352a15.451967 15.451967 0 0 1-15.451967-15.451968v-176.689627a15.451967 15.451967 0 1 1 30.903935 0v176.689627a15.451967 15.451967 0 0 1-15.451968 15.451968zM772.89345 957.39404a15.445967 15.445967 0 0 1-13.395972-7.729983 15.449967 15.449967 0 0 1 5.655988-21.107956l151.58768-87.519815a15.449967 15.449967 0 0 1 21.107956 5.655988 15.449967 15.449967 0 0 1-5.655988 21.107955l-151.587681 87.519816a15.373968 15.373968 0 0 1-7.711983 2.073995zM288.540471 424.139165a15.451967 15.451967 0 0 1-15.451967-15.451967v-177.191626a15.451967 15.451967 0 1 1 30.903935 0v177.191626a15.449967 15.449967 0 0 1-15.451968 15.451967zM325.604393 183.535673a15.445967 15.445967 0 0 1-13.395972-7.729984 15.449967 15.449967 0 0 1 5.655989-21.107955l151.67568-87.569816c7.391984-4.267991 16.841964-1.735996 21.107955 5.655988s1.735996 16.841964-5.655988 21.107956l-151.67568 87.569815a15.379968 15.379968 0 0 1-7.711984 2.073996zM701.247601 185.181669a15.373968 15.373968 0 0 1-7.711984-2.073995l-154.527674-89.215812a15.449967 15.449967 0 0 1-5.655988-21.107956 15.449967 15.449967 0 0 1 21.107955-5.655988l154.527674 89.215812a15.449967 15.449967 0 0 1 5.655989 21.107956 15.449967 15.449967 0 0 1-13.395972 7.729983zM735.459529 424.139165a15.451967 15.451967 0 0 1-15.451968-15.451967v-177.191626a15.451967 15.451967 0 1 1 30.903935 0v177.191626a15.451967 15.451967 0 0 1-15.451967 15.451967z" fill="#5291D9" p-id="6406"></path><path d="M540.843939 7.312045h-9.56598l-21.373955 20.979955-7.467984 32.161932 7.467984 28.359941 16.225966 23.179951 14.713969 1.603996c18.82996-10.241978 31.609933-30.199936 31.609933-53.141888 0.002-22.943952-12.779973-42.89991-31.609933-53.143887z" fill="#F27182" p-id="6407"></path><path d="M509.234006 60.455932c0-22.943952 12.781973-42.89991 31.609933-53.141887A60.167873 60.167873 0 0 0 512 0.00006c-33.38793 0-60.455872 27.065943-60.455872 60.455872 0 33.38793 27.065943 60.455872 60.455872 60.455873a60.201873 60.201873 0 0 0 28.845939-7.311985c-18.82996-10.243978-31.611933-30.201936-31.611933-53.143888z" fill="#ED5469" p-id="6408"></path><path d="M764.303468 136.327772h-9.56598l-21.373955 20.979956-7.467984 32.161932 7.467984 28.359941 16.225966 23.179951 14.713969 1.603996c18.82996-10.241978 31.609933-30.199936 31.609933-53.141888 0-22.945952-12.779973-42.90191-31.609933-53.143888z" fill="#F27182" p-id="6409"></path><path d="M732.693534 189.46966c0-22.943952 12.781973-42.89991 31.609934-53.141888a60.195873 60.195873 0 0 0-28.845939-7.311984c-33.38793 0-60.455872 27.065943-60.455873 60.455872 0 33.38793 27.065943 60.455872 60.455873 60.455873a60.201873 60.201873 0 0 0 28.845939-7.311985c-18.82796-10.245978-31.609933-30.203936-31.609934-53.145888z" fill="#ED5469" p-id="6410"></path><path d="M317.386411 136.327772h-9.56598l-21.373955 20.979956-7.467984 32.161932 7.467984 28.359941 16.225966 23.179951 14.713969 1.603996c18.82996-10.241978 31.609933-30.199936 31.609933-53.141888 0-22.945952-12.779973-42.90191-31.609933-53.143888z" fill="#F27182" p-id="6411"></path><path d="M285.776477 189.46966c0-22.943952 12.781973-42.89991 31.609934-53.141888a60.195873 60.195873 0 0 0-28.84594-7.311984c-33.38793 0-60.455872 27.065943-60.455872 60.455872 0 33.38793 27.065943 60.455872 60.455872 60.455873a60.201873 60.201873 0 0 0 28.84594-7.311985c-18.82996-10.245978-31.609933-30.203936-31.609934-53.145888z" fill="#ED5469" p-id="6412"></path><path d="M764.303468 394.345228h-9.56598l-21.373955 20.979956-7.467984 32.161932 7.467984 28.35994 16.225966 23.179951 14.713969 1.603997c18.82996-10.241978 31.609933-30.199936 31.609933-53.141888 0-22.943952-12.779973-42.90191-31.609933-53.143888z" fill="#F27182" p-id="6413"></path><path d="M732.693534 447.487116c0-22.943952 12.781973-42.89991 31.609934-53.141888a60.195873 60.195873 0 0 0-28.845939-7.311984c-33.38793 0-60.455872 27.065943-60.455873 60.455872 0 33.38793 27.065943 60.455872 60.455873 60.455873a60.201873 60.201873 0 0 0 28.845939-7.311985c-18.82796-10.245978-31.609933-30.203936-31.609934-53.145888z" fill="#ED5469" p-id="6414"></path><path d="M317.386411 394.345228h-9.56598l-21.373955 20.979956-7.467984 32.161932 7.467984 28.35994 16.225966 23.179951 14.713969 1.603997c18.82996-10.241978 31.609933-30.199936 31.609933-53.141888 0-22.943952-12.779973-42.90191-31.609933-53.143888z" fill="#F27182" p-id="6415"></path><path d="M285.776477 447.487116c0-22.943952 12.781973-42.89991 31.609934-53.141888a60.195873 60.195873 0 0 0-28.84594-7.311984c-33.38793 0-60.455872 27.065943-60.455872 60.455872 0 33.38793 27.065943 60.455872 60.455872 60.455873a60.201873 60.201873 0 0 0 28.84594-7.311985c-18.82996-10.245978-31.609933-30.203936-31.609934-53.145888z" fill="#ED5469" p-id="6416"></path><path d="M764.303468 910.40014h-9.56598l-21.373955 20.979955-7.467984 32.163933 7.467984 28.35994 16.225966 23.179951 14.713969 1.603996c18.82996-10.241978 31.609933-30.199936 31.609933-53.141887 0-22.945952-12.779973-42.903909-31.609933-53.145888z" fill="#F27182" p-id="6417"></path><path d="M732.693534 963.542028c0-22.943952 12.781973-42.89991 31.609934-53.141888a60.195873 60.195873 0 0 0-28.845939-7.311985c-33.38793 0-60.455872 27.065943-60.455873 60.455873 0 33.38793 27.065943 60.455872 60.455873 60.455872a60.201873 60.201873 0 0 0 28.845939-7.311985c-18.82796-10.243978-31.609933-30.201936-31.609934-53.145887z" fill="#ED5469" p-id="6418"></path><path d="M317.386411 910.40014h-9.56598l-21.373955 20.979955-7.467984 32.163933 7.467984 28.35994 16.225966 23.179951 14.713969 1.603996c18.82996-10.241978 31.609933-30.199936 31.609933-53.141887 0-22.945952-12.779973-42.903909-31.609933-53.145888z" fill="#F27182" p-id="6419"></path><path d="M285.776477 963.542028c0-22.943952 12.781973-42.89991 31.609934-53.141888a60.195873 60.195873 0 0 0-28.84594-7.311985c-33.38793 0-60.455872 27.065943-60.455872 60.455873 0 33.38793 27.065943 60.455872 60.455872 60.455872a60.201873 60.201873 0 0 0 28.84594-7.311985c-18.82996-10.243978-31.609933-30.201936-31.609934-53.145887z" fill="#ED5469" p-id="6420"></path><path d="M987.762996 781.386412h-9.565979l-21.373955 20.979956-7.467985 32.163932 7.467985 28.35994 16.225965 23.179951 14.713969 1.603997c18.82996-10.241978 31.609933-30.199936 31.609934-53.141888 0-22.945952-12.779973-42.903909-31.609934-53.145888z" fill="#F27182" p-id="6421"></path><path d="M956.151063 834.5283c0-22.943952 12.781973-42.89991 31.609933-53.141888a60.195873 60.195873 0 0 0-28.845939-7.311985c-33.38793 0-60.455872 27.065943-60.455872 60.455873 0 33.38793 27.065943 60.455872 60.455872 60.455872a60.201873 60.201873 0 0 0 28.845939-7.311984c-18.82796-10.243978-31.609933-30.201936-31.609933-53.145888z" fill="#ED5469" p-id="6422"></path><path d="M540.843939 781.386412h-9.56598l-21.373955 20.979956-7.467984 32.163932 7.467984 28.35994 16.225966 23.179951 14.713969 1.603997c18.82996-10.241978 31.609933-30.199936 31.609933-53.141888 0.002-22.945952-12.779973-42.903909-31.609933-53.145888z" fill="#F27182" p-id="6423"></path><path d="M509.234006 834.5283c0-22.943952 12.781973-42.89991 31.609933-53.141888a60.195873 60.195873 0 0 0-28.845939-7.311985c-33.38793 0-60.455872 27.065943-60.455872 60.455873 0 33.38793 27.065943 60.455872 60.455872 60.455872a60.201873 60.201873 0 0 0 28.845939-7.311984c-18.82796-10.243978-31.609933-30.201936-31.609933-53.145888z" fill="#ED5469" p-id="6424"></path><path d="M987.762996 523.358956h-9.565979l-21.373955 20.979956-7.467985 32.161932 7.467985 28.35994 16.225965 23.179951 14.713969 1.603997c18.82996-10.241978 31.609933-30.199936 31.609934-53.141888 0-22.943952-12.779973-42.90191-31.609934-53.143888z" fill="#F27182" p-id="6425"></path><path d="M956.151063 576.500844c0-22.943952 12.781973-42.89991 31.609933-53.141888a60.195873 60.195873 0 0 0-28.845939-7.311985c-33.38793 0-60.455872 27.065943-60.455872 60.455873 0 33.38793 27.065943 60.455872 60.455872 60.455872a60.201873 60.201873 0 0 0 28.845939-7.311984c-18.82796-10.245978-31.609933-30.203936-31.609933-53.145888z" fill="#ED5469" p-id="6426"></path><path d="M540.843939 523.358956h-9.56598l-21.373955 20.979956-7.467984 32.161932 7.467984 28.35994 16.225966 23.179951 14.713969 1.603997c18.82996-10.241978 31.609933-30.199936 31.609933-53.141888 0.002-22.943952-12.779973-42.90191-31.609933-53.143888z" fill="#F27182" p-id="6427"></path><path d="M509.234006 576.500844c0-22.943952 12.781973-42.89991 31.609933-53.141888a60.195873 60.195873 0 0 0-28.845939-7.311985c-33.38793 0-60.455872 27.065943-60.455872 60.455873 0 33.38793 27.065943 60.455872 60.455872 60.455872a60.201873 60.201873 0 0 0 28.845939-7.311984c-18.82796-10.245978-31.609933-30.203936-31.609933-53.145888z" fill="#ED5469" p-id="6428"></path><path d="M93.926882 523.358956H84.360902l-21.373955 20.979956-7.467984 32.161932 7.467984 28.35994 16.225966 23.179951 14.713969 1.603997c18.82996-10.241978 31.609933-30.199936 31.609933-53.141888 0.002-22.943952-12.779973-42.90191-31.609933-53.143888z" fill="#F27182" p-id="6429"></path><path d="M62.316949 576.500844c0-22.943952 12.781973-42.89991 31.609933-53.141888a60.195873 60.195873 0 0 0-28.845939-7.311985c-33.38793 0-60.455872 27.065943-60.455873 60.455873 0 33.38793 27.065943 60.455872 60.455873 60.455872a60.201873 60.201873 0 0 0 28.845939-7.311984c-18.82796-10.245978-31.609933-30.203936-31.609933-53.145888z" fill="#ED5469" p-id="6430"></path><path d="M93.926882 781.386412H84.360902l-21.373955 20.979956-7.467984 32.163932 7.467984 28.35994 16.225966 23.179951 14.713969 1.603997c18.82996-10.241978 31.609933-30.199936 31.609933-53.141888 0.002-22.945952-12.779973-42.903909-31.609933-53.145888z" fill="#F27182" p-id="6431"></path><path d="M62.316949 834.5283c0-22.943952 12.781973-42.89991 31.609933-53.141888a60.195873 60.195873 0 0 0-28.845939-7.311985c-33.38793 0-60.455872 27.065943-60.455873 60.455873 0 33.38793 27.065943 60.455872 60.455873 60.455872a60.201873 60.201873 0 0 0 28.845939-7.311984c-18.82796-10.243978-31.609933-30.201936-31.609933-53.145888z" fill="#ED5469" p-id="6432"></path></svg>